<svg xmlns="http://www.w3.org/2000/svg" viewBox="0 0 80 90">
  <!-- Gold leaf accent -->
  <path d="M12,78 C4,58 6,35 22,15 C20,30 19,48 15,62 Z" fill="#D4A84B"/>
  <path d="M16,70 C10,50 13,30 24,18" stroke="#C49A3E" stroke-width="0.8" fill="none" opacity="0.6"/>

  <!-- Teal heart shape -->
  <path d="M40,80 C18,65 4,45 16,28 C21,20 30,17 40,28 C50,17 59,20 64,28 C76,45 62,65 40,80Z" fill="#0D7377"/>
  <path d="M40,75 C22,62 10,45 20,30 C24,23 32,21 40,30 C48,21 56,23 60,30 C70,45 58,62 40,75Z" fill="#11999E" opacity="0.4"/>

  <!-- Person figure -->
  <circle cx="40" cy="33" r="7" fill="white" fill-opacity="0.95"/>
  <path d="M40,40 L40,56" stroke="white" stroke-width="3" stroke-linecap="round" opacity="0.9"/>
  <path d="M29,46 Q34,40 40,42 Q46,40 51,46" stroke="white" stroke-width="2.5" stroke-linecap="round" fill="none" opacity="0.85"/>
</svg>
